<?xml version="1.0" encoding="UTF-8"?>
<svg version="1.1" xmlns="http://www.w3.org/2000/svg" width="300" height="300">
<path d="M0 0 C40.4283673 2.72488308 81.34180036 21.38369773 109 51 C109.60328125 51.64453125 110.2065625 52.2890625 110.828125 52.953125 C114.9719041 57.52929844 119.27344292 62.42594984 122 68 C121.67 68.99 121.34 69.98 121 71 C119.00390625 71.703125 119.00390625 71.703125 116.5625 72.25 C113.14444044 73.16951807 113.14444044 73.16951807 110.9609375 75.74609375 C110.33641291 77.89294084 110.33641291 77.89294084 110 81 C110.94875 81.309375 111.8975 81.61875 112.875 81.9375 C116 83 116 83 118 84 C118.20127809 85.91214187 118.40040496 87.82454745 118.5859375 89.73828125 C119.16222653 92.88612414 120.5053663 95.36984297 122.0625 98.140625 C123.03887737 100.07710679 123.55071257 101.88460502 124 104 C125.98 102.02 125.98 102.02 128 100 C129.9375 100.5625 129.9375 100.5625 132 102 C133.42641823 108.46402184 133.18373239 115.09795483 133.1875 121.6875 C133.19974609 122.79544922 133.21199219 123.90339844 133.22460938 125.04492188 C133.2551962 142.4896076 133.2551962 142.4896076 130 149 C131.65 149.66 133.3 150.32 135 151 C134.45047949 154.67197739 133.57027249 157.03997767 131.3828125 160.03125 C130.59583984 161.12373047 130.59583984 161.12373047 129.79296875 162.23828125 C128.96732422 163.35783203 128.96732422 163.35783203 128.125 164.5 C127.04271972 165.98845673 125.96194846 167.47801206 124.8828125 168.96875 C124.11964722 170.01289063 124.11964722 170.01289063 123.34106445 171.078125 C121.86525432 173.12130407 121.86525432 173.12130407 120.36328125 175.96875 C119 178 119 178 117.09765625 178.75 C116.42605469 178.8325 115.75445312 178.915 115.0625 179 C111.92077674 179.62834465 111.0924849 179.91481654 108.625 182.1875 C105.55400841 187.50267775 104.82519445 191.38423075 105.8125 197.375 C106.2450587 200.86430685 106.28138329 202.48231693 104.5859375 205.6015625 C102.81355784 207.84074174 100.95439298 209.91993652 99 212 C98.34 212.99 97.68 213.98 97 215 C97.96421875 214.48308594 98.9284375 213.96617187 99.921875 213.43359375 C101.19758689 212.7675971 102.47364701 212.10226718 103.75 211.4375 C104.38421875 211.09525391 105.0184375 210.75300781 105.671875 210.40039062 C110.41374941 207.95536163 110.41374941 207.95536163 113.30859375 208.17578125 C115.84704165 209.41276164 117.30574884 210.74099846 119 213 C118.40674416 221.25039511 110.35960224 227.85273088 104.69921875 233.296875 C102.92695436 235.07321356 101.35071714 236.94349333 99.75 238.875 C95.38171351 243.92431111 90.25442371 247.91244964 85 252 C84.071875 252.74378906 83.14375 253.48757813 82.1875 254.25390625 C76.75356797 258.49916565 71.16185822 262.26151182 65.1875 265.6875 C64.59686768 266.03167969 64.00623535 266.37585938 63.39770508 266.73046875 C51.62742329 273.27485078 38.98735306 277.12579804 25.98193359 280.29785156 C23.6021709 280.88059022 21.22898619 281.48612953 18.85546875 282.09375 C17.3128381 282.47792269 15.76987997 282.86078331 14.2265625 283.2421875 C13.53261383 283.42022919 12.83866516 283.59827087 12.12368774 283.78170776 C6.99257856 285.01030271 2.27500085 285.14539694 -3 285 C-2.70703125 282.78645833 -2.4140625 280.57291667 -2.12109375 278.359375 C-1.99972651 275.99467126 -2.30366743 274.2488963 -3 272 C-7.02130361 271.74320232 -7.02130361 271.74320232 -11 272 C-11.5775 272.5259375 -12.155 273.051875 -12.75 273.59375 C-16.25109356 275.78193347 -19.44781904 274.56415126 -23.25 273.6875 C-24.36761719 273.45256836 -24.36761719 273.45256836 -25.5078125 273.21289062 C-27.34206171 272.82487637 -29.17157324 272.41458514 -31 272 C-31 273.65 -31 275.3 -31 277 C-38.2787771 279.42625903 -47.00247024 275.64322313 -53.734375 272.69140625 C-60.89302815 268.98363494 -68.6252275 264.56026531 -74.203125 258.67578125 C-74.79609375 258.12277344 -75.3890625 257.56976563 -76 257 C-79.69432511 257.14612895 -79.69432511 257.14612895 -83 258 C-87.79694327 252.30026122 -91.3257461 246.94387815 -94 240 C-94.37253906 239.16855469 -94.74507812 238.33710938 -95.12890625 237.48046875 C-97.43142457 232.00095651 -98.17575512 227.65062016 -98 221.6875 C-97.89096153 217.52586514 -97.86746386 215.31477334 -99.5 211.4375 C-102.75881809 208.26015236 -107.20616713 204 -112 204 C-113.98 199.71 -115.96 195.42 -118 191 C-119.00894164 195.03576656 -119.11303696 198.63706929 -119.0625 202.75 C-119.05798828 203.44738281 -119.05347656 204.14476562 -119.04882812 204.86328125 C-119.0371002 206.57555803 -119.01916653 208.28779033 -119 210 C-121.3337099 211.25090806 -122.8263241 211.98697431 -125.5 212.1875 C-129.02681383 210.51226343 -129.59399999 208.48755625 -130.97265625 204.921875 C-131.31167969 203.95765625 -131.65070313 202.9934375 -132 202 C-132.58587891 200.42992187 -132.58587891 200.42992187 -133.18359375 198.828125 C-136.23240975 189.97611094 -138.08924552 181.02103442 -139.75 171.8125 C-139.96068115 170.64936279 -140.1713623 169.48622559 -140.38842773 168.2878418 C-145.60296035 138.04953408 -143.45916524 107.68655429 -132.875 78.8125 C-132.51293457 77.81464478 -132.51293457 77.81464478 -132.14355469 76.79663086 C-130.81051287 73.36144958 -130.15827502 72.10551668 -127 70 C-126.443125 70.804375 -125.88625 71.60875 -125.3125 72.4375 C-123.22613039 75.11109279 -123.22613039 75.11109279 -120.5 76.0625 C-117.89042248 76.21533579 -117.89042248 76.21533579 -115.6875 74.5 C-113.6609887 72.02719824 -113.6609887 72.02719824 -114.125 68.5625 C-114.08375 67.386875 -114.0425 66.21125 -114 65 C-111.375 62.5625 -111.375 62.5625 -109.72265625 61.3828125 C-106.518667 58.81090277 -104.36151188 55.32728424 -102 52 C-101.00334855 50.66416181 -100.00426077 49.33012709 -99 48 C-99.66 47.01 -100.32 46.02 -101 45 C-92.04017269 36.08757918 -77.2716812 25 -64 25 C-64.33 23.35 -64.66 21.7 -65 20 C-59.09641787 16.06427858 -50.10965154 17.60240144 -43.25 18.5625 C-40.1195049 19.29414542 -40.1195049 19.29414542 -38 18 C-33.79565792 17.59573634 -31.67948623 17.54208537 -28.125 19.9375 C-23.30074717 23.12150687 -18.91811341 23.58445762 -13.26953125 22.453125 C-8.15972587 21.08193945 -8.15972587 21.08193945 -4 18 C4.2371731 16.53637007 12.26162784 19.50231216 20 22 C12.92853132 17.25377247 5.8556026 13.29722585 -2 10 C-2.25 3.375 -2.25 3.375 0 0 Z " fill="#6A2A2A" transform="translate(154,9)"/>
<path d="" fill="#AE8E8E" transform="translate(0,0)"/>
<path d="" fill="#AF8F8F" transform="translate(0,0)"/>
<path d="" fill="#AF8F8F" transform="translate(0,0)"/>
<path d="" fill="#AE8E8E" transform="translate(0,0)"/>
<path d="" fill="#AE8E8E" transform="translate(0,0)"/>
<path d="" fill="#AF8F8F" transform="translate(0,0)"/>
<path d="" fill="#AD8D8D" transform="translate(0,0)"/>
<path d="" fill="#AD8D8D" transform="translate(0,0)"/>
<path d="" fill="#AF8F8F" transform="translate(0,0)"/>
<path d="" fill="#AD8D8D" transform="translate(0,0)"/>
<path d="" fill="#AF8F8F" transform="translate(0,0)"/>
<path d="" fill="#AE8E8E" transform="translate(0,0)"/>
<path d="" fill="#AE8E8E" transform="translate(0,0)"/>
<path d="" fill="#AC8C8C" transform="translate(0,0)"/>
<path d="" fill="#AC8C8C" transform="translate(0,0)"/>
<path d="" fill="#AF8F8F" transform="translate(0,0)"/>
<path d="" fill="#AF8F8F" transform="translate(0,0)"/>
<path d="" fill="#AB8B8B" transform="translate(0,0)"/>
<path d="" fill="#AF8F8F" transform="translate(0,0)"/>
<path d="" fill="#AE8E8E" transform="translate(0,0)"/>
<path d="" fill="#AE8E8E" transform="translate(0,0)"/>
<path d="" fill="#AD8D8D" transform="translate(0,0)"/>
<path d="" fill="#AF8F8F" transform="translate(0,0)"/>
<path d="" fill="#AC8C8C" transform="translate(0,0)"/>
<path d="" fill="#AE8E8E" transform="translate(0,0)"/>
<path d="" fill="#AE8E8E" transform="translate(0,0)"/>
<path d="" fill="#AF8F8F" transform="translate(0,0)"/>
<path d="" fill="#AF8F8F" transform="translate(0,0)"/>
<path d="" fill="#AF8F8F" transform="translate(0,0)"/>
<path d="" fill="#AE8E8E" transform="translate(0,0)"/>
</svg>
